<svg width="48" height="48" viewBox="0 0 48 48" fill="none" xmlns="http://www.w3.org/2000/svg">
<path d="M41.6867 23.2294C41.6755 23.205 41.6642 23.1806 41.6511 23.1581L35.9998 13.1063V6C35.9998 5.20435 35.6838 4.44129 35.1212 3.87868C34.5586 3.31607 33.7955 3 32.9998 3H14.9998C14.2042 3 13.4411 3.31607 12.8785 3.87868C12.3159 4.44129 11.9998 5.20435 11.9998 6V13.11L6.34859 23.1581C6.33546 23.1806 6.32421 23.205 6.31109 23.2294C6.06625 23.7222 5.96226 24.2731 6.01056 24.8214C6.05886 25.3696 6.25759 25.8938 6.58484 26.3363L6.60546 26.3625L22.813 47.415C22.9531 47.5967 23.133 47.7439 23.339 47.8451C23.5449 47.9463 23.7713 47.999 24.0008 47.999C24.2302 47.999 24.4567 47.9463 24.6626 47.8451C24.8685 47.7439 25.0485 47.5967 25.1886 47.415L41.3942 26.3625L41.4148 26.3363C41.7422 25.8938 41.9408 25.3694 41.9888 24.8211C42.0368 24.2729 41.9322 23.722 41.6867 23.2294ZM32.9998 6V12H14.9998V6H32.9998ZM23.9998 27C23.5548 27 23.1198 26.868 22.7498 26.6208C22.3798 26.3736 22.0914 26.0222 21.9211 25.611C21.7508 25.1999 21.7063 24.7475 21.7931 24.311C21.8799 23.8746 22.0942 23.4737 22.4088 23.159C22.7235 22.8443 23.1244 22.6301 23.5609 22.5432C23.9973 22.4564 24.4497 22.501 24.8609 22.6713C25.272 22.8416 25.6234 23.13 25.8706 23.5C26.1179 23.87 26.2498 24.305 26.2498 24.75C26.2498 25.3467 26.0128 25.919 25.5908 26.341C25.1689 26.7629 24.5966 27 23.9998 27ZM25.4998 42.0938V29.7806C26.7083 29.4203 27.7468 28.6371 28.4252 27.5741C29.1037 26.5111 29.3769 25.2394 29.1948 23.9915C29.0128 22.7437 28.3876 21.6031 27.4337 20.7782C26.4798 19.9534 25.2609 19.4995 23.9998 19.4995C22.7388 19.4995 21.5198 19.9534 20.5659 20.7782C19.612 21.6031 18.9869 22.7437 18.8048 23.9915C18.6228 25.2394 18.896 26.5111 19.5744 27.5741C20.2529 28.6371 21.2913 29.4203 22.4998 29.7806V42.0919L8.99984 24.5625L14.3792 15H33.6223L38.9998 24.5625L25.4998 42.0938Z" fill="#404040"/>
</svg>
