<svg width="19" height="20" viewBox="0 0 19 20" fill="none" xmlns="http://www.w3.org/2000/svg">
<path d="M18.1255 0.625H0.875488C0.460645 0.625 0.125488 0.960156 0.125488 1.375V18.625C0.125488 19.0398 0.460645 19.375 0.875488 19.375H18.1255C18.5403 19.375 18.8755 19.0398 18.8755 18.625V1.375C18.8755 0.960156 18.5403 0.625 18.1255 0.625ZM15.9599 6.09766H14.4622C13.288 6.09766 13.0606 6.65547 13.0606 7.47578V9.28281H15.8638L15.4981 12.1117H13.0606V19.375H10.138V12.1141H7.69346V9.28281H10.138V7.19687C10.138 4.77578 11.6169 3.45625 13.7778 3.45625C14.8138 3.45625 15.7021 3.53359 15.9622 3.56875V6.09766H15.9599Z" fill="#222222"/>
</svg>
