<svg width="23" height="22" viewBox="0 0 23 22" fill="none" xmlns="http://www.w3.org/2000/svg">
<path d="M11.4998 5.50236C8.4596 5.50236 6.00603 7.95593 6.00603 10.9961C6.00603 14.0363 8.4596 16.4899 11.4998 16.4899C14.54 16.4899 16.9935 14.0363 16.9935 10.9961C16.9935 7.95593 14.54 5.50236 11.4998 5.50236ZM11.4998 14.5666C9.53371 14.5666 7.92924 12.9622 7.92924 10.9961C7.92924 9.03004 9.53371 7.42557 11.4998 7.42557C13.4659 7.42557 15.0703 9.03004 15.0703 10.9961C15.0703 12.9622 13.4659 14.5666 11.4998 14.5666ZM17.2185 3.997C16.5087 3.997 15.9355 4.57022 15.9355 5.28004C15.9355 5.98986 16.5087 6.56307 17.2185 6.56307C17.9284 6.56307 18.5016 5.99254 18.5016 5.28004C18.5018 5.11149 18.4687 4.94455 18.4043 4.78879C18.3399 4.63303 18.2454 4.49151 18.1262 4.37232C18.0071 4.25314 17.8655 4.15864 17.7098 4.09424C17.554 4.02983 17.3871 3.99679 17.2185 3.997ZM22.2087 10.9961C22.2087 9.51754 22.2221 8.05236 22.1391 6.57647C22.056 4.86218 21.665 3.34075 20.4114 2.08718C19.1551 0.83093 17.6364 0.442538 15.9221 0.359502C14.4435 0.276466 12.9784 0.289859 11.5025 0.289859C10.0239 0.289859 8.55871 0.276466 7.08282 0.359502C5.36853 0.442538 3.8471 0.833609 2.59353 2.08718C1.33728 3.34343 0.948885 4.86218 0.86585 6.57647C0.782814 8.05504 0.796207 9.52022 0.796207 10.9961C0.796207 12.472 0.782814 13.9399 0.86585 15.4158C0.948885 17.13 1.33996 18.6515 2.59353 19.905C3.84978 21.1613 5.36853 21.5497 7.08282 21.6327C8.56139 21.7158 10.0266 21.7024 11.5025 21.7024C12.981 21.7024 14.4462 21.7158 15.9221 21.6327C17.6364 21.5497 19.1578 21.1586 20.4114 19.905C21.6676 18.6488 22.056 17.13 22.1391 15.4158C22.2248 13.9399 22.2087 12.4747 22.2087 10.9961ZM19.8516 17.3122C19.656 17.7997 19.4203 18.164 19.0426 18.539C18.665 18.9166 18.3034 19.1524 17.8159 19.3479C16.4069 19.9077 13.0614 19.7818 11.4998 19.7818C9.93817 19.7818 6.58996 19.9077 5.18103 19.3506C4.69353 19.155 4.32924 18.9193 3.95424 18.5416C3.57656 18.164 3.34085 17.8024 3.14531 17.3149C2.58817 15.9033 2.71406 12.5577 2.71406 10.9961C2.71406 9.4345 2.58817 6.08629 3.14531 4.67736C3.34085 4.18986 3.57656 3.82557 3.95424 3.45057C4.33192 3.07557 4.69353 2.83718 5.18103 2.64165C6.58996 2.0845 9.93817 2.21039 11.4998 2.21039C13.0614 2.21039 16.4096 2.0845 17.8185 2.64165C18.306 2.83718 18.6703 3.0729 19.0453 3.45057C19.423 3.82825 19.6587 4.18986 19.8542 4.67736C20.4114 6.08629 20.2855 9.4345 20.2855 10.9961C20.2855 12.5577 20.4114 15.9033 19.8516 17.3122Z" fill="#222222"/>
</svg>
