<svg width="32" height="12" viewBox="0 0 32 12" fill="none" xmlns="http://www.w3.org/2000/svg">
<path d="M18.3584 11.3333C21.0737 11.3331 22.8507 9.8627 22.8604 7.58325C22.8707 4.69079 19.2116 4.53046 19.2363 3.23755C19.245 2.84551 19.5864 2.427 20.334 2.32056C20.7041 2.26683 21.7252 2.22606 22.8828 2.81079L23.3379 0.486572C22.7152 0.237859 21.9144 0.000246048 20.918 0.000244141C18.362 0.000244141 16.5642 1.49025 16.5498 3.62329C16.5316 5.20185 17.8324 6.08293 18.8125 6.60669C19.8193 7.14405 20.158 7.48858 20.1543 7.96899C20.1466 8.70446 19.351 9.02947 18.6064 9.04224C17.3074 9.06437 16.5517 8.65758 15.9512 8.34985L15.4834 10.7512C16.0859 11.0558 17.2016 11.3217 18.3584 11.3333ZM12.1494 0.200439H9.43457L6.74219 7.66138L5.6543 1.31665C5.52642 0.608869 5.02184 0.200653 4.46191 0.200439H0.0615234L0 0.517822C0.9032 0.7328 1.92907 1.08048 2.55078 1.45142C2.9313 1.678 3.04012 1.87578 3.16504 2.41431L5.22754 11.1624L7.95996 11.1624L12.1494 0.200439ZM15.8447 0.200439H13.2598L11.1211 11.1624H13.7061L15.8447 0.200439ZM25.9795 9.52563H29.2949L29.6084 11.1624H32L29.9131 0.200439H27.7051C27.2093 0.200439 26.7909 0.517261 26.6045 1.00415L22.7256 11.1624H25.4395L25.9795 9.52563ZM28.084 3.16138L28.8672 7.27759H26.7227L28.084 3.16138Z" fill="url(#paint0_linear_315_40)"/>
<defs>
<linearGradient id="paint0_linear_315_40" x1="0.0557754" y1="3.48597" x2="10.1408" y2="-9.5695" gradientUnits="userSpaceOnUse">
<stop stop-color="#222357"/>
<stop offset="1" stop-color="#254AA5"/>
</linearGradient>
</defs>
</svg>
